<svg width="47" height="68" viewBox="0 0 47 68" fill="none" xmlns="http://www.w3.org/2000/svg">
<path d="M15.275 0C8.14745 0 2.35 5.78469 2.35 12.8966C2.35 16.7841 4.0902 20.2667 6.8251 22.6331C2.76682 24.8105 0 29.0887 0 34C0 38.3628 2.18939 42.2169 5.52158 44.5517C2.18939 46.8866 0 50.7406 0 55.1034C0 62.2153 5.79745 68 12.925 68C20.0525 68 25.85 62.2153 25.85 55.1034V42.2069V25.7931H34.075C41.2025 25.7931 47 20.0084 47 12.8966C47 5.78469 41.2025 0 34.075 0H15.275ZM15.275 4.68966H34.075C38.6105 4.68966 42.3 8.37103 42.3 12.8966C42.3 17.4221 38.6105 21.1034 34.075 21.1034H25.85H15.275C10.7395 21.1034 7.05 17.4221 7.05 12.8966C7.05 8.37103 10.7395 4.68966 15.275 4.68966ZM12.925 25.7931H15.275H21.15V42.2069H12.925C8.3895 42.2069 4.7 38.5255 4.7 34C4.7 29.4745 8.3895 25.7931 12.925 25.7931ZM35.25 25.7931C32.757 25.7931 30.366 26.7813 28.6032 28.5402C26.8404 30.2992 25.85 32.6849 25.85 35.1724C25.85 37.66 26.8404 40.0456 28.6032 41.8046C30.366 43.5635 32.757 44.5517 35.25 44.5517C37.743 44.5517 40.134 43.5635 41.8968 41.8046C43.6596 40.0456 44.65 37.66 44.65 35.1724C44.65 32.6849 43.6596 30.2992 41.8968 28.5402C40.134 26.7813 37.743 25.7931 35.25 25.7931V25.7931ZM12.925 46.8966H21.15V55.1034C21.15 59.629 17.4605 63.3103 12.925 63.3103C8.3895 63.3103 4.7 59.629 4.7 55.1034C4.7 50.5779 8.3895 46.8966 12.925 46.8966Z" fill="white"/>
</svg>
