<svg width="75" height="73" viewBox="0 0 75 73" fill="none" xmlns="http://www.w3.org/2000/svg">
<path d="M37.5023 0.00233883C16.7846 0.00233883 0 16.765 0 37.4242C0 53.9669 10.7444 67.9884 25.6352 72.9351C27.5173 73.2883 28.1971 72.1306 28.1971 71.1295C28.1971 70.2408 28.176 67.8902 28.1619 64.7702C17.7245 67.0248 15.526 59.7393 15.526 59.7393C13.8173 55.4264 11.3515 54.2687 11.3515 54.2687C7.95753 51.9555 11.621 52.0046 11.621 52.0046C15.3807 52.2596 17.3589 55.8521 17.3589 55.8521C20.7036 61.5776 26.1344 59.9217 28.2838 58.9581C28.6119 56.5467 29.5894 54.8885 30.6535 53.9646C22.328 53.0267 13.5735 49.8108 13.5735 35.4712C13.5735 31.3759 15.0267 28.0406 17.4292 25.4211C17.0143 24.4832 15.744 20.6709 17.7597 15.516C17.7597 15.516 20.8982 14.5173 28.0729 19.3541C31.0754 18.5238 34.2631 18.1098 37.4484 18.0888C40.6361 18.1098 43.8215 18.5261 46.824 19.3541C53.9565 14.5173 57.0926 15.516 57.0926 15.516C59.106 20.6709 57.8356 24.4809 57.47 25.4211C59.8491 28.0406 61.3023 31.3782 61.3023 35.4712C61.3023 49.8435 52.5361 53.0127 44.2012 53.9272C45.5044 55.0475 46.7256 57.3513 46.7256 60.8479C46.7256 65.853 46.6787 69.8852 46.6787 71.1038C46.6787 72.0768 47.335 73.2462 49.2664 72.8696C64.2673 67.9744 75 53.9412 75 37.4218C75 16.7626 58.2154 0 37.4977 0L37.5023 0.00233883Z" fill="#00FFD8"/>
</svg>
