<svg width="74" height="74" viewBox="0 0 74 74" fill="none" xmlns="http://www.w3.org/2000/svg">
<path d="M30.0333 25.3174H29.9236C29.3666 27.5587 28.8095 30.4054 28.1911 32.5854L25.9541 40.5727H34.2792L31.9325 32.5854C31.2658 30.3484 30.5947 27.5587 30.0333 25.3174Z" fill="white"/>
<path d="M69.4646 0H4.53097C2.02644 0 0 2.02644 0 4.53097V69.469C0 71.9692 2.02644 74 4.53097 74H69.469C71.9692 74 74 71.9692 74 69.469V4.53097C74 2.03082 71.9692 0 69.4646 0ZM38.4146 56.6042L35.5065 46.9414H24.7295L22.0452 56.6042H13.2201L24.7295 18.9573H35.8969L47.5774 56.6042H38.4146ZM60.4992 56.6042H52.0031V29.2912H60.4992V56.6042ZM56.2007 25.9401C53.5207 25.9401 51.7311 24.0365 51.7838 21.6899C51.7311 19.2292 53.5207 17.3958 56.2621 17.3958C58.9947 17.3958 60.7273 19.2336 60.7799 21.6899C60.7799 24.0365 58.9947 25.9401 56.2007 25.9401Z" fill="white"/>
</svg>
