<svg width="74" height="73" viewBox="0 0 74 73" fill="none" xmlns="http://www.w3.org/2000/svg">
<path d="M4.68434 17.593C-1.84708 27.1581 -1.03287 39.6018 3.95599 49.7673C4.07442 50.0087 4.19286 50.2501 4.32017 50.4915C4.39715 50.6424 4.47117 50.7993 4.55703 50.9471C4.60144 51.0376 4.65473 51.1251 4.7021 51.2096C4.78797 51.3726 4.87383 51.5265 4.96265 51.6924C5.12056 51.97 5.27846 52.2466 5.43637 52.5222C5.52519 52.6731 5.61402 52.827 5.70876 52.9778C5.88838 53.2735 6.07195 53.5672 6.25946 53.8589C6.33644 53.9856 6.41342 54.1003 6.49632 54.227C6.75687 54.6223 7.02333 55.0176 7.29572 55.4038L7.31941 55.434C7.36086 55.4973 7.41119 55.5577 7.4556 55.621C7.69246 55.953 7.92932 56.2849 8.18395 56.6107L8.4593 56.9668C8.68037 57.2504 8.90539 57.5321 9.13435 57.8117L9.39194 58.1255C9.69689 58.4936 10.0107 58.8496 10.3394 59.2178L10.3571 59.2359L10.3927 59.2751C10.7065 59.6221 11.0263 59.9631 11.3401 60.301L11.6451 60.6148C11.8967 60.8713 12.1484 61.1248 12.4089 61.3752C12.5126 61.4778 12.6162 61.5804 12.7228 61.6769C13.0662 62.0088 13.4156 62.3317 13.7679 62.6425C13.7738 62.6485 13.7768 62.6546 13.7857 62.6576C13.8449 62.7119 13.91 62.7632 13.9693 62.8145C14.2851 63.0901 14.6009 63.3626 14.9167 63.6322L15.3105 63.952C15.571 64.1653 15.8345 64.3755 16.101 64.5827L16.5244 64.9116C16.8175 65.1318 17.1136 65.3491 17.4126 65.5573C17.5222 65.6357 17.6258 65.7142 17.7383 65.7987L17.8271 65.8651C18.1114 66.0642 18.4015 66.2573 18.6887 66.4474C18.813 66.5319 18.9256 66.6194 19.0618 66.6888C19.5059 66.9724 19.9559 67.2591 20.4119 67.5307L20.7849 67.7449C21.1195 67.944 21.454 68.1372 21.7975 68.3242C21.9811 68.4268 22.1705 68.5234 22.3571 68.6199C22.5939 68.7497 22.8308 68.8794 23.0825 69.0031L23.2512 69.0846L23.5473 69.2325C23.9263 69.4175 24.3092 69.5986 24.6961 69.7756L24.9329 69.8872C25.3751 70.0844 25.8221 70.2745 26.2741 70.4575L26.5998 70.5873C27.0173 70.7502 27.4407 70.9131 27.8641 71.07L28.0239 71.1244C28.4977 71.2903 28.9714 71.4442 29.4451 71.5951L29.7856 71.6977C30.1646 71.8365 30.6501 71.9813 31.1505 72.096L31.2423 72.1141C62.8246 77.9829 72 52.7726 72 52.7726C64.2961 63.0016 50.6174 65.7021 37.6553 62.6968C37.1638 62.5821 36.6901 62.4283 36.2075 62.2834L35.8463 62.1718C35.3725 62.0249 34.9087 61.8711 34.4547 61.7101L34.2623 61.6407C33.8507 61.4929 33.4392 61.336 33.0365 61.1761L32.6931 61.0372C32.2489 60.8592 31.8048 60.6691 31.3666 60.476L31.1002 60.3553C30.7242 60.1803 30.3511 60.0083 29.981 59.8273L29.6583 59.6674C29.3681 59.5225 29.0809 59.3717 28.7937 59.2178C28.6013 59.1152 28.4059 59.0186 28.2164 58.91C27.867 58.7199 27.5236 58.5177 27.1801 58.3156L26.8308 58.1164C26.3748 57.8449 25.9248 57.5582 25.4807 57.2746C25.3563 57.1961 25.2438 57.1116 25.1165 57.0332C24.7938 56.822 24.471 56.6047 24.1542 56.3814C24.0506 56.312 23.947 56.2306 23.8434 56.1581C23.5374 55.9389 23.2344 55.7156 22.9344 55.4883C22.7982 55.3857 22.665 55.2801 22.5318 55.1775C22.2564 54.9633 21.9811 54.749 21.7116 54.5227L21.3475 54.224C21.004 53.9343 20.6635 53.6477 20.326 53.349L20.2135 53.2524C19.8523 52.9265 19.5029 52.5946 19.1417 52.2567L18.8397 51.961C18.5772 51.7075 18.3206 51.451 18.0699 51.1915L17.7679 50.8838C17.4521 50.5478 17.1363 50.2079 16.8205 49.8639L16.7731 49.8126C16.4474 49.4475 16.1276 49.0763 15.8138 48.6992L15.5681 48.3914C15.3312 48.1047 15.0943 47.8151 14.8782 47.5224C14.7923 47.4198 14.7065 47.3112 14.6236 47.2026C14.3512 46.8435 14.0847 46.4784 13.8242 46.1223C6.62955 36.1227 4.04482 22.3273 9.79756 11L4.68434 17.593Z" fill="#00FFD8"/>
<path d="M25.5353 9.60514C23.3176 13.0686 22 17.3044 22 21.8461C22 25.8473 23.0206 29.6078 24.8176 32.8782L24.7588 32.7624C25.45 34.1198 26.1382 35.2664 26.8971 36.3565L26.8324 36.2615C27.55 37.411 28.3471 38.4091 29.2441 39.3032L29.2471 39.3061C29.5853 39.6804 29.9382 40.0487 30.3 40.4082C30.3912 40.5032 30.4824 40.5923 30.5765 40.6874C30.9265 41.029 31.2824 41.3676 31.6529 41.6943C31.6676 41.7062 31.6824 41.724 31.6971 41.7329C32.1029 42.0953 32.5265 42.4458 32.9529 42.7815L33.2382 43.0073C33.6676 43.3399 34.1029 43.6667 34.55 43.9756L34.5882 44.0053C34.7853 44.1419 34.9882 44.2726 35.1882 44.4033C35.2853 44.4687 35.3765 44.534 35.4735 44.5934C35.7941 44.8014 36.1176 45.0034 36.4471 45.1964L36.5824 45.2766C36.8676 45.443 37.1529 45.6034 37.4441 45.7519C37.5441 45.8083 37.6471 45.8588 37.75 45.9123C37.95 46.0163 38.15 46.1232 38.3529 46.2272L38.4412 46.2687C38.8559 46.4767 39.2706 46.6727 39.6971 46.8599C39.7882 46.9014 39.8794 46.9371 39.9735 46.9757C40.3118 47.1213 40.6588 47.2638 41.0029 47.3975L41.4441 47.5609C41.7559 47.6767 42.0735 47.7866 42.3853 47.8936L42.8147 48.0302C43.1853 48.1728 43.6412 48.3094 44.1118 48.4163L44.1824 48.4282C68.4059 52.4828 74 33.6446 74 33.6446C68.9588 40.9755 59.1941 44.4746 48.7794 41.7448C48.3088 41.6201 47.8618 41.4894 47.4088 41.3438C47.2706 41.3022 47.1324 41.2547 46.9971 41.2072C46.6735 41.1032 46.3559 40.9874 46.0382 40.8715L45.6059 40.7111C45.2588 40.5745 44.9147 40.4349 44.5735 40.2893C44.4794 40.2477 44.3853 40.2121 44.2971 40.1705C43.8676 39.9834 43.4471 39.7844 43.0324 39.5794C42.8176 39.4725 42.6088 39.3596 42.4 39.2527L42.0353 39.0626C41.7647 38.914 41.4971 38.7616 41.2324 38.6051C41.1706 38.5695 41.1059 38.5338 41.0412 38.4952C40.7137 38.3012 40.3902 38.1011 40.0706 37.8952C39.9706 37.8298 39.8765 37.7615 39.7794 37.6991C39.5676 37.5625 39.3588 37.4199 39.15 37.2774C38.7029 36.9655 38.2706 36.6417 37.8412 36.309L37.5471 36.0714C32.9912 32.4742 29.5529 27.6265 27.7235 22.0422L27.6647 21.8343C26.9706 19.7728 26.5676 17.3965 26.5676 14.9281C26.5676 10.9537 27.6059 7.22288 29.4265 4L29.3706 4.1099L25.5353 9.60514Z" fill="#00FFD8"/>
<path d="M41.4417 2.88138C39.9111 5.09805 39 7.83106 39 10.7718C39 12.8935 39.4738 14.9054 40.3241 16.7126L40.2877 16.6236C42.5047 21.4516 46.5409 25.1579 51.5215 26.9621L51.6582 27.0066C51.8647 27.0838 52.0682 27.1491 52.2808 27.2173L52.5541 27.3004C52.791 27.3865 53.0886 27.4725 53.3923 27.5408L53.444 27.5497C67.2532 30.161 71.0008 20.6237 72 19.223C68.717 23.8404 63.2049 24.9472 56.4384 23.3448C55.9039 23.2172 55.3147 23.0303 54.8015 22.8493C54.0058 22.5733 53.362 22.3062 52.7394 22.0095L52.8578 22.0599C51.558 21.4397 50.4434 20.7661 49.4078 19.9916L49.4564 20.0272C43.4006 15.5375 39.6408 6.97051 43.5919 0L41.4417 2.88138Z" fill="#00FFD8"/>
</svg>
