<svg width="72" height="72" viewBox="0 0 72 72" fill="none" xmlns="http://www.w3.org/2000/svg">
<path d="M0 0V72H72V0H0ZM39.1834 56.1523C39.1834 63.1594 35.0691 66.3583 29.0751 66.3583C23.6597 66.3583 20.5251 63.5631 18.918 60.1714L24.4311 56.844C25.4931 58.7237 26.4574 60.3154 28.7871 60.3154C31.0037 60.3154 32.418 59.4463 32.418 56.0571V33.0583H39.1834V56.1523ZM55.188 66.3583C48.9034 66.3583 44.838 63.3703 42.8606 59.4463L48.3737 56.2654C49.8214 58.6286 51.7166 60.3797 55.044 60.3797C57.8391 60.3797 59.6417 58.9809 59.6417 57.0369C59.6417 54.7226 57.8083 53.9023 54.7071 52.5369L53.0203 51.8143C48.1346 49.7417 44.9049 47.1214 44.9049 41.6083C44.9049 36.5297 48.7774 32.6726 54.8049 32.6726C59.112 32.6726 62.1977 34.1666 64.4169 38.088L59.1454 41.4643C57.9883 39.3917 56.7334 38.5714 54.7894 38.5714C52.8146 38.5714 51.5597 39.8263 51.5597 41.4643C51.5597 43.4906 52.8146 44.3083 55.7229 45.5786L57.4097 46.3011C63.1646 48.7594 66.3943 51.2846 66.3943 56.9391C66.3943 63.0154 61.6037 66.3557 55.1906 66.3557L55.188 66.3583Z" fill="#00FFD8"/>
</svg>
