<svg width="73" height="72" viewBox="0 0 73 72" fill="none" xmlns="http://www.w3.org/2000/svg">
<path d="M72.1302 70.2476L70.6119 68.7953C69.8617 67.8021 69.0637 66.9229 68.1939 66.1218L68.179 66.1098C67.2863 65.2956 66.3587 64.5214 65.3963 63.7873C64.6252 63.2552 63.5652 62.614 62.2162 61.8639C61.1073 61.3628 60.2405 60.4836 59.7713 59.3914L59.7593 59.3614L59.6159 59.2894C60.2495 59.2263 60.8293 59.1093 61.3853 58.9443L61.3165 58.9623L63.0202 58.4912C63.7256 58.2691 64.5415 58.1251 65.3874 58.0921H65.4053C66.296 58.0561 67.1358 57.9121 67.9369 57.675L67.8621 57.693C68.2487 57.597 68.6462 57.488 69.0547 57.366C69.4632 57.2439 69.8129 57.1349 70.1038 57.0389V56.5318C69.8149 56.0977 69.4652 55.6016 69.0547 55.0435C68.6632 54.5094 68.2238 54.0443 67.7306 53.6392L67.7157 53.6272C66.4624 52.5149 65.1642 51.4387 63.8212 50.3985C62.6376 49.4713 61.2956 48.5261 59.9028 47.6499L59.6996 47.5299C58.9643 47.0438 58.1214 46.5937 57.2337 46.2246L57.1321 46.1886C56.2395 45.8245 55.3597 45.4255 54.493 44.9914C54.203 44.8473 53.8653 44.7213 53.5156 44.6343L53.4827 44.6283C53.133 44.5563 52.8341 44.3762 52.616 44.1212L52.613 44.1182C52.2005 43.5721 51.8388 42.9509 51.5519 42.2908L51.528 42.2308C51.2391 41.5527 50.9263 40.9015 50.5895 40.2774C49.8662 38.8731 49.1668 37.4458 48.4913 35.9955C47.8158 34.5452 47.1673 33.0929 46.5456 31.6386C46.1132 30.6704 45.7157 29.7032 45.353 28.737C44.9525 27.6748 44.5012 26.7656 43.9751 25.9104L44.014 25.9794C42.7228 23.771 41.4346 21.8866 40.0358 20.0952L40.1195 20.2092C38.7357 18.4568 37.301 16.8905 35.7588 15.4382L35.7348 15.4172C34.2135 13.9829 32.5756 12.6146 30.857 11.3484L30.7106 11.2433C28.9252 9.94107 26.9725 8.6588 24.8524 7.39654C24.0006 6.89244 23.0113 6.48135 21.9681 6.2173L21.8904 6.19929L18.5638 5.36512L16.6838 5.22109C16.0582 5.17308 15.4315 5.14907 14.8038 5.14907C14.3615 4.91502 13.9819 4.63597 13.6472 4.3119C13.3184 3.99683 12.9627 3.69977 12.5921 3.42671L12.5622 3.40571C10.7539 2.34649 8.65276 1.37729 6.45594 0.615128L6.20189 0.537112C5.62504 0.198041 4.93162 0 4.19338 0C3.66734 0 3.16222 0.102021 2.70193 0.285059L2.72883 0.276058C1.59306 0.729152 0.726294 1.65034 0.352686 2.79658L0.343719 2.82659C0.125532 3.3427 0 3.93982 0 4.56995C0 5.67418 0.388552 6.68539 1.03714 7.47456L1.03116 7.46556C2.11512 8.91586 2.94602 10.0561 3.52387 10.8863C3.95626 11.4684 4.4026 12.0735 4.86288 12.7016C5.28431 13.2658 5.65792 13.9109 5.95979 14.592L5.9837 14.6551C6.15108 15.0121 6.29753 15.4382 6.40513 15.8763L6.4141 15.9243C6.50974 16.3364 6.6303 16.7845 6.77575 17.2686C7.20814 18.3808 7.61762 19.5211 8.00418 20.6893C8.42561 21.9646 8.89187 23.0448 9.43285 24.074L9.37606 23.954C9.66499 24.4861 9.95491 25.0062 10.2458 25.5143C10.5367 26.0224 10.8496 26.5185 11.1843 27.0026C11.3786 27.2967 11.6237 27.5397 11.9046 27.7288L11.9136 27.7348C12.2095 27.9508 12.4038 28.2899 12.4187 28.674V28.677C12.078 29.1811 11.8479 29.7842 11.7701 30.4353L11.7672 30.4533C11.6625 31.2125 11.5131 31.8876 11.3099 32.5388L11.3338 32.4488C10.6673 34.4472 10.2847 36.7517 10.2847 39.1432C10.2847 39.9173 10.3235 40.6795 10.4042 41.4326L10.3953 41.3396C10.5746 44.2142 11.4384 46.8548 12.8222 49.1412L12.7804 49.0662C13.3692 49.9514 13.9998 50.7226 14.6962 51.4277C15.1984 51.9918 15.9277 52.3459 16.7406 52.3459C17.1949 52.3459 17.6253 52.2349 18.0019 52.0368L17.987 52.0428C19.0331 51.6648 19.7773 50.7046 19.8311 49.5613V49.5553C19.9746 48.133 20.1898 46.8608 20.4857 45.6185L20.4468 45.8195C20.5185 45.6305 20.5604 45.4145 20.5604 45.1864C20.5604 45.1414 20.5574 45.0964 20.5544 45.0514V45.0574C20.5305 44.8393 20.663 44.6333 20.9519 44.4393V44.5833C21.2409 45.2614 21.5417 45.9386 21.8546 46.6147C22.1674 47.2909 22.4922 47.968 22.8289 48.6461C23.7107 49.9934 24.6462 51.1697 25.6743 52.2529L25.6654 52.2439C26.6965 53.3601 27.8203 54.3623 29.0338 55.2475L29.0996 55.2925C29.7332 55.7786 30.2891 56.3037 30.7913 56.8768L30.8032 56.8889C31.2755 57.447 31.8404 57.9061 32.477 58.2511L32.5069 58.2661V58.1941H32.6503C32.5338 57.9331 32.3455 57.723 32.1123 57.579L32.1064 57.576C31.8703 57.444 31.667 57.3119 31.4757 57.1679L31.4907 57.1769C31.0583 56.7428 30.6119 56.2587 30.1517 55.7246C29.6914 55.1905 29.2699 54.6824 28.8874 54.2003C27.8751 52.796 26.9097 51.3287 25.9912 49.7984C25.0726 48.2681 24.2048 46.7127 23.3879 45.1324C23.0013 44.3582 22.6277 43.5601 22.267 42.7379C21.9064 41.9157 21.5567 41.1176 21.2179 40.3434C21.0715 40.0463 20.9699 39.7043 20.931 39.3412V39.3262C20.9131 38.9811 20.7158 38.6841 20.4289 38.531L20.4229 38.528C20.0613 39.1462 19.6607 39.6803 19.2034 40.1634L19.2064 40.1604C18.7312 40.6615 18.3427 41.2526 18.0647 41.9007L18.0497 41.9397C17.6283 42.9659 17.3205 44.1572 17.186 45.4025L17.18 45.4595C17.0365 46.7417 16.8921 48.06 16.7466 49.4143L16.6031 49.4863L16.5314 49.5583C15.7543 49.3993 15.1147 48.9012 14.768 48.229L14.762 48.214C14.3993 47.5119 14.0746 46.8218 13.7876 46.1436C13.0464 44.2322 12.5861 42.0208 12.5233 39.7103V39.6833C12.4964 39.3172 12.4845 38.8881 12.4845 38.459C12.4845 36.4606 12.7983 34.5342 13.3782 32.7278L13.3423 32.8598C13.4858 32.3277 13.7986 31.4315 14.2808 30.1713C14.763 28.911 14.8596 28.0398 14.5707 27.5577C14.4213 27.0626 14.1433 26.6455 13.7787 26.3275L13.7757 26.3245C13.411 26.0064 13.0793 25.6733 12.7744 25.3193L12.7654 25.3073C12.4287 24.8192 12.1039 24.2991 11.7911 23.7469C11.4782 23.1948 11.2013 22.6507 10.9602 22.1146C10.467 20.9684 9.96188 19.5311 9.54344 18.0548L9.47769 17.7877C9.00246 16.0924 8.47343 14.6581 7.84577 13.2778L7.92348 13.4698C7.59171 12.7136 7.20615 12.0595 6.75782 11.4624L6.77575 11.4864C6.28956 10.8343 5.85518 10.2171 5.47261 9.63501C4.98642 9.00688 4.50422 8.40175 4.026 7.81963C3.53881 7.22851 3.10543 6.56237 2.75274 5.84822L2.72584 5.78821C2.58238 5.49714 2.45685 5.15807 2.37017 4.807L2.36419 4.77399C2.33131 4.66897 2.31338 4.54595 2.31338 4.42292C2.31338 4.17687 2.38511 3.94582 2.51065 3.75378L2.50766 3.75978C2.54053 3.59175 2.61824 3.44472 2.72584 3.32469C2.84241 3.21967 2.99185 3.14165 3.15325 3.10865H3.15923C3.41328 2.94361 3.72113 2.84459 4.05589 2.84459C4.30695 2.84459 4.54905 2.9016 4.76126 3.00363L4.75229 3.00063C5.40685 3.18666 5.93588 3.3727 6.45296 3.58575L6.34536 3.54674C7.25995 3.93482 8.10381 4.3099 8.87692 4.67197C9.76761 5.09806 10.5268 5.54816 11.2441 6.04926L11.1903 6.01325C11.5769 6.2553 11.9624 6.52136 12.347 6.81142C12.7316 7.10148 13.141 7.39254 13.5754 7.6846H14.5886C15.3598 7.6846 16.1787 7.72161 17.0455 7.79562C17.9212 7.86464 18.7312 8.02967 19.5023 8.28773L19.4306 8.26672C20.8682 8.69581 22.1026 9.20292 23.2743 9.81204L23.1517 9.75503C24.3333 10.3592 25.4542 11.0003 26.5142 11.6784C28.2746 12.7797 29.796 13.9079 31.2276 15.1412L31.1768 15.0991C32.6713 16.3834 34.0282 17.7007 35.3015 19.093L35.3314 19.129C36.5747 20.4913 37.7613 21.9706 38.8463 23.5219L38.9389 23.6629C39.9372 25.0792 40.9444 26.7176 41.8501 28.4159L41.9756 28.671C42.2177 29.1331 42.4628 29.7002 42.675 30.2793L42.7079 30.3783C42.9011 30.9344 43.1173 31.5046 43.3565 32.0887C43.8865 33.2989 44.4544 34.5202 45.0601 35.7524C45.6658 36.9847 46.2337 38.183 46.7638 39.3472L48.3538 42.8309C48.9127 44.0492 49.5374 45.0994 50.2637 46.0686L50.2308 46.0236C50.8376 46.6747 51.6476 47.1308 52.5562 47.2898L52.5801 47.2929C53.68 47.5689 54.6065 47.881 55.5032 48.2501L55.3627 48.199C55.7901 48.3941 56.3401 48.6011 56.905 48.7842L57.0245 48.8172C57.6582 49.0122 58.2081 49.2703 58.7132 49.5943L58.6863 49.5793C59.6637 50.1284 60.4916 50.6686 61.2807 51.2567L61.2179 51.2117C62.0369 51.8158 62.8558 52.3859 63.6747 52.922C64.0613 53.2121 64.7099 53.6352 65.6205 54.1913C66.5311 54.7474 67.0133 55.2675 67.0671 55.7516C66.7264 55.7396 66.3229 55.7306 65.9194 55.7306C64.4489 55.7306 63.0023 55.8266 61.5855 56.0127L61.7529 55.9947C60.1509 56.2107 58.6983 56.6038 57.3324 57.1649L57.4519 57.1229C57.1142 57.2699 56.7107 57.405 56.2923 57.51L56.2355 57.522C55.811 57.585 55.4823 57.9271 55.4404 58.3532V58.3562C55.6227 58.5842 55.7692 58.8483 55.8678 59.1363L55.8738 59.1543C55.9754 59.4604 56.098 59.7244 56.2474 59.9705L56.2385 59.9525C56.5941 60.5856 56.9767 61.1317 57.4071 61.6358L57.3951 61.6208C57.8166 62.143 58.2918 62.596 58.8178 62.9831L58.8388 62.9981C59.325 63.3862 59.8311 63.7853 60.3571 64.1954C60.8383 64.5735 61.3823 64.9455 61.9472 65.2816L62.0189 65.3206C62.8678 65.8427 63.8541 66.3408 64.8822 66.7579L65.0197 66.8059C66.1376 67.256 67.097 67.7781 67.9877 68.3993L67.9399 68.3662C68.5197 68.7043 69.0975 69.0794 69.6734 69.4915C70.2492 69.9036 70.8032 70.3026 71.3352 70.6887C71.5534 70.9048 71.7447 71.1448 71.9061 71.4059L71.915 71.4209C72.187 71.7329 72.5636 71.946 72.991 72H73V71.856C72.737 71.6549 72.5427 71.3759 72.45 71.0548L72.4471 71.0428C72.3723 70.7367 72.2617 70.4697 72.1123 70.2236L72.1183 70.2356L72.1302 70.2476ZM16.6091 12.6206C16.2226 12.6206 15.8609 12.6326 15.5242 12.6566C15.1804 12.6806 14.8606 12.7437 14.5588 12.8457L14.5857 12.8367V12.9087H14.7291C14.9224 13.1987 15.1655 13.5248 15.4584 13.8869C15.7513 14.249 16.0163 14.6 16.2534 14.9401L17.4101 17.3346L17.5536 17.2626C17.8913 17.0165 18.1514 16.6865 18.3068 16.2994L18.3128 16.2844C18.4682 15.8673 18.5579 15.3812 18.5579 14.8771C18.5579 14.8231 18.5579 14.7691 18.5549 14.7151V14.7241C18.4204 14.592 18.3098 14.436 18.2321 14.262L18.2291 14.253L17.987 13.7069C17.8286 13.4548 17.6074 13.2568 17.3474 13.1307L17.3384 13.1277C17.0574 12.9927 16.8183 12.8217 16.6091 12.6206V12.6206Z" fill="white"/>
</svg>
