<svg width="135" height="71" viewBox="0 0 135 71" fill="none" xmlns="http://www.w3.org/2000/svg">
<path d="M67.5 3.54367C103.655 3.54367 131.456 18.773 131.456 35.5C131.456 52.227 103.634 67.4563 67.5 67.4563C31.3453 67.4563 3.54375 52.227 3.54375 35.5C3.54375 18.773 31.3664 3.54367 67.5 3.54367ZM67.5 0C30.2273 0 0 15.8832 0 35.5C0 55.1168 30.2273 71 67.5 71C104.773 71 135 55.1168 135 35.5C135 15.8832 104.773 0 67.5 0ZM46.0266 32.6524C44.3602 41.1952 38.475 40.3093 31.2398 40.3093L34.1297 25.4174C42.1453 25.4174 47.5875 24.5526 46.0266 32.6524ZM20.5453 55.391H28.2867L30.1219 45.9412C38.7914 45.9412 44.1703 46.574 49.1484 41.9124C54.6539 36.85 56.0883 27.8431 52.1648 23.3292C50.1188 20.9667 46.8281 19.8066 42.3563 19.8066H27.443L20.5453 55.391ZM59.7164 10.3357H67.4156L65.5805 19.7855C72.225 19.7855 78.3844 19.3004 81.3586 22.0425C84.4805 24.9112 82.9828 28.5814 79.6078 45.899H71.8031C75.0516 29.1509 75.6633 27.7588 74.482 26.4932C73.343 25.2698 70.7484 25.5229 64.4836 25.5229L60.518 45.899H52.8187L59.7164 10.3357V10.3357ZM106.523 32.6524C104.836 41.3218 98.782 40.3093 91.7367 40.3093L94.6266 25.4174C102.684 25.4174 108.084 24.5526 106.523 32.6524V32.6524ZM81.0422 55.391H88.8047L90.6398 45.9412C99.7523 45.9412 104.794 46.4685 109.666 41.9124C115.172 36.85 116.606 27.8431 112.683 23.3292C110.637 20.9667 107.346 19.8066 102.874 19.8066H87.9609L81.0422 55.391V55.391Z" fill="#00FFD8"/>
</svg>
