<svg width="73" height="73" viewBox="0 0 73 73" fill="none" xmlns="http://www.w3.org/2000/svg">
<path d="M24.7589 20.8105C22.9119 20.8105 21.6582 20.9902 21.0063 21.1741V33.0462C21.7836 33.2217 22.7322 33.2802 24.0444 33.2802C28.8793 33.2802 31.863 30.8356 31.863 26.7152C31.8588 23.0211 29.293 20.8105 24.7589 20.8105Z" fill="white"/>
<path d="M68.5328 0H4.47135C2.00166 0 0 1.99748 0 4.45881V68.5161C0 70.9816 2.00166 72.9833 4.47135 72.9833H68.5328C70.9983 72.9833 73 70.9816 73 68.5161V4.46299C73 1.99748 70.9983 0 68.5328 0ZM37.1665 36.0299C34.07 38.9551 29.4691 40.2672 24.1077 40.2672C22.9084 40.2672 21.8386 40.2087 21.0028 40.0875V54.4711H11.9891V14.7889C14.7931 14.3167 18.7295 13.9573 24.2832 13.9573C29.887 13.9573 33.8903 15.0271 36.569 17.1792C39.1473 19.2101 40.8731 22.5532 40.8731 26.4896C40.8731 30.4261 39.5568 33.7566 37.1665 36.0299ZM50.7519 55.0645C46.9241 55.0645 43.5267 54.2371 41.3161 53.0377L42.925 46.5355C44.5965 47.5426 48.0607 48.7377 50.7519 48.7377C53.489 48.7377 54.6257 47.7849 54.6257 46.2889C54.6257 44.8013 53.7314 44.0867 50.334 42.95C44.3081 40.9233 41.9764 37.6387 42.0349 34.1787C42.0349 28.7545 46.6901 24.6259 53.9111 24.6259C57.3127 24.6259 60.3549 25.4073 62.1434 26.2974L60.5345 32.5656C59.2224 31.8469 56.7193 30.8983 54.2078 30.8983C52.0056 30.8983 50.7561 31.7926 50.7561 33.2844C50.7561 34.6551 51.8802 35.3696 55.4614 36.6275C61.0109 38.533 63.3427 41.3412 63.397 45.6287C63.397 51.0653 59.0929 55.0645 50.7519 55.0645Z" fill="white"/>
</svg>
