<svg width="122" height="73" viewBox="0 0 122 73" fill="none" xmlns="http://www.w3.org/2000/svg">
<path fill-rule="evenodd" clip-rule="evenodd" d="M110.628 0H11.3228C5.03831 0 -0.0491551 5.13733 0.000358375 11.372V49.2786C0.000358375 55.563 5.08819 60.6505 11.3727 60.6505H58.4067L79.904 72.621L75.0159 60.6505H110.628C116.913 60.6505 122 55.563 122 49.2786V11.372C122 5.08745 116.913 0 110.628 0ZM9.22821 8.77835C7.83164 8.87811 6.7842 9.37689 6.08593 10.3245C5.38766 11.2223 5.13829 12.3695 5.2879 13.6663C8.23066 32.3704 10.9739 44.9891 13.5176 51.5231C14.5152 53.917 15.6623 55.0645 17.009 54.9647C19.1039 54.8149 21.5977 51.9221 24.5405 46.286C26.0866 43.0937 28.4808 38.3057 31.7228 31.9213C34.416 41.348 38.1069 48.4308 42.7457 53.169C44.0426 54.5156 45.3892 55.1142 46.6858 55.0144C47.8332 54.9147 48.7307 54.3161 49.3293 53.2187C49.8281 52.2711 50.0276 51.1737 49.9279 49.9269C49.6286 45.3882 50.0777 39.0538 51.3245 30.9238C52.6211 22.5445 54.2173 16.5093 56.1625 12.9182C56.5616 12.17 56.7111 11.4218 56.6613 10.5241C56.5616 9.37686 56.0628 8.42922 55.1152 7.68107C54.1676 6.93292 53.1199 6.58378 51.9728 6.68351C50.5264 6.78327 49.4291 7.48154 48.681 8.87811C45.5887 14.5142 43.3939 23.6417 42.0974 36.3105C40.2019 31.5223 38.6057 25.8862 37.3588 19.2525C36.8103 16.3098 35.4637 14.9132 33.2689 15.0629C31.7726 15.1626 30.5257 16.1602 29.5282 18.0555L18.6051 38.8543C16.8095 31.6221 15.1137 22.7938 13.5675 12.3695C13.2184 9.77591 11.7719 8.57883 9.22821 8.77835ZM105.341 12.3697C108.883 13.1178 111.526 15.0132 113.322 18.1554C114.918 20.8488 115.716 24.0908 115.716 27.9812C115.716 33.1184 114.419 37.8069 111.825 42.0964C108.833 47.0841 104.942 49.5779 100.104 49.5779C99.2565 49.5779 98.3586 49.4781 97.4107 49.2786C93.8697 48.5305 91.2261 46.6354 89.4304 43.493C87.8346 40.7497 87.0365 37.4579 87.0365 33.6172C87.0365 28.48 88.3334 23.7915 90.9269 19.552C93.9694 14.5643 97.8598 12.0704 102.648 12.0704C103.496 12.0704 104.394 12.1702 105.341 12.3697ZM103.247 39.3531C105.092 37.7072 106.339 35.2631 107.037 31.9713C107.237 30.8242 107.386 29.5773 107.386 28.2804C107.386 26.834 107.087 25.2878 106.488 23.7416C105.74 21.7964 104.743 20.749 103.546 20.4996C101.75 20.1505 100.005 21.148 98.3586 23.592C97.012 25.4873 96.1639 27.4824 95.7151 29.5274C95.4655 30.6746 95.3658 31.9216 95.3658 33.1685C95.3658 34.6149 95.6651 36.161 96.2636 37.7072C97.012 39.6524 98.0093 40.6997 99.2065 40.9493C100.453 41.1985 101.8 40.65 103.247 39.3531ZM82.0487 18.1554C80.253 15.0132 77.5597 13.1178 74.0684 12.3697C73.1205 12.1702 72.2229 12.0704 71.3748 12.0704C66.5868 12.0704 62.6965 14.5643 59.6539 19.552C57.0601 23.7915 55.7635 28.48 55.7635 33.6172C55.7635 37.4579 56.5616 40.7497 58.1574 43.493C59.9532 46.6354 62.5967 48.5305 66.1378 49.2786C67.0853 49.4781 67.9832 49.5779 68.8313 49.5779C73.6693 49.5779 77.5597 47.0841 80.5522 42.0964C83.1461 37.8069 84.4426 33.1184 84.4426 27.9812C84.4426 24.0908 83.6445 20.8488 82.0487 18.1554ZM75.764 31.9713C75.066 35.2631 73.8188 37.7072 71.9734 39.3531C70.527 40.65 69.1803 41.1985 67.9335 40.9493C66.7363 40.6997 65.7387 39.6524 64.9907 37.7072C64.3921 36.161 64.0928 34.6149 64.0928 33.1685C64.0928 31.9216 64.1926 30.6746 64.4421 29.5274C64.8909 27.4824 65.7387 25.4873 67.0853 23.592C68.7316 21.148 70.4772 20.1505 72.2726 20.4996C73.4698 20.749 74.4674 21.7964 75.2155 23.7416C75.814 25.2878 76.1133 26.834 76.1133 28.2804C76.1133 29.5773 76.0136 30.8242 75.764 31.9713Z" fill="white"/>
</svg>
