<svg width="74" height="74" viewBox="0 0 74 74" fill="none" xmlns="http://www.w3.org/2000/svg">
<path d="M36.9577 74C16.2949 73.6029 0.144485 56.6648 0 36.9577C0.401758 16.3103 17.25 0.144485 36.9577 0C57.6063 0.412797 73.8553 17.2234 74 36.9577C73.5918 57.6217 56.6913 73.8553 36.9577 74ZM36.9577 2.6217C17.7721 2.99947 2.6706 18.6376 2.53715 36.9577C2.9103 56.1585 18.6384 71.2448 36.9577 71.3782C56.1585 71.005 71.2448 55.2769 71.3783 36.9577C71.0161 17.758 55.2505 2.75502 36.9577 2.6217ZM28.0777 67.2342L37.5497 40.0022L47.4445 66.6422C40.7783 68.8739 34.4759 69.0091 28.0777 67.2342ZM20.8045 19.1132C17.337 19.5845 13.9647 19.7526 10.656 19.6206C16.9384 10.6388 26.9974 5.5857 36.9577 5.49715C45.1044 5.65132 52.6993 8.73083 58.2697 13.7852C55.6863 13.5942 54.1394 14.7272 53.0263 16.6605C51.4085 21.6518 54.827 25.3465 56.7475 29.0926C58.5632 32.5154 58.4192 36.4074 57.4241 39.7486L52.6881 55.9018L41.2709 21.9885C42.4605 21.8779 43.6579 21.8422 44.7384 21.6502C46.0171 21.3655 46.2977 20.1755 45.4149 19.4514C45.1331 19.2259 44.8229 19.1132 44.4846 19.1132L37.6344 19.6207H32.4332C30.9647 19.7074 26.8183 18.2889 26.4708 20.2127C26.2913 20.9538 26.8445 21.5346 27.4856 21.6504C28.617 21.7969 29.9131 21.9634 30.9531 22.0732L35.9428 35.4355L29.008 55.9018L17.5063 21.9885C18.7234 21.8828 19.9565 21.846 21.0583 21.6502C21.9605 21.5372 22.355 21.0862 22.2423 20.2971C22.0824 19.5955 21.457 19.1215 20.8045 19.1132ZM8.11885 24.3566L23.2572 65.2892C17.7949 62.5969 13.4764 58.6375 10.4022 53.9142C4.77855 44.9398 4.18698 33.5541 8.11885 24.3566ZM67.2766 45.3725C64.7913 53.4884 59.7153 60.2103 52.6881 64.2743C53.0263 63.3722 53.562 61.8499 54.295 59.7074L63.0904 34.1668C63.9361 31.686 64.5281 28.9234 64.8664 25.8788C64.9807 24.6332 64.9845 23.3774 64.7819 22.2422C68.3855 30.0149 69.4078 37.7139 67.2766 45.3725Z" fill="#00FFD8"/>
</svg>
