<svg width="72" height="47" viewBox="0 0 72 47" fill="none" xmlns="http://www.w3.org/2000/svg">
<rect x="17.9907" width="35.9326" height="8.15703" rx="4.07851" fill="#00FFD8"/>
<rect x="8" y="15.3428" width="31.5049" height="8.15703" rx="4.07851" fill="#00FFD8"/>
<rect x="25.8247" y="27.9668" width="35.9326" height="8.15703" rx="4.07851" fill="#00FFD8"/>
<rect x="18.3315" y="38.8428" width="35.9326" height="8.15703" rx="4.07851" fill="#00FFD8"/>
<path fill-rule="evenodd" clip-rule="evenodd" d="M50.5175 47C61.8978 47 71.1234 36.4787 71.1234 23.5C71.1234 10.5213 61.8978 0 50.5175 0C44.2789 0 38.6878 3.16183 34.9091 8.15703H37.8988C39.8832 8.15703 41.4918 9.76566 41.4918 11.75C41.4918 13.7343 39.8832 15.343 37.8988 15.343H31.1868C30.3621 17.884 29.9116 20.632 29.9116 23.5H35.8526C37.0861 23.5 38.0861 24.5 38.0861 25.7335C38.0861 26.967 37.0861 27.9669 35.8526 27.9669H30.2834C30.7817 30.92 31.7646 33.6763 33.1342 36.124H38.7699C39.5207 36.124 40.1294 36.7326 40.1294 37.4835C40.1294 38.2343 39.5207 38.843 38.7699 38.843H34.9091C38.6878 43.8382 44.2789 47 50.5175 47Z" fill="#00FFD8"/>
<path fill-rule="evenodd" clip-rule="evenodd" d="M66 23.5C66 29.8513 60.8513 35 54.5 35C48.1487 35 43 29.8513 43 23.5C43 17.1487 48.1487 12 54.5 12C60.8513 12 66 17.1487 66 23.5ZM50.7009 22.4466C49.5489 22.9495 48.3653 23.4664 47.2829 24.0625C46.7177 24.4763 47.4689 24.7691 48.1736 25.0436C48.2856 25.0873 48.3965 25.1305 48.5007 25.1736C48.5874 25.2003 48.6756 25.2284 48.765 25.2568C49.5487 25.5065 50.4226 25.785 51.1835 25.3661C52.4335 24.6481 53.6131 23.818 54.7918 22.9885C55.1779 22.7167 55.564 22.445 55.9524 22.1774C55.9706 22.1657 55.9911 22.1524 56.0136 22.1379C56.3445 21.9233 57.0887 21.441 56.8134 22.1057C56.1625 22.8175 55.4652 23.4476 54.7643 24.0812C54.2918 24.5082 53.8176 24.9368 53.3547 25.3929C52.9516 25.7205 52.533 26.3792 52.9844 26.8379C54.0241 27.5658 55.0801 28.276 56.1355 28.9858C56.4789 29.2168 56.8223 29.4478 57.165 29.6793C57.7459 30.143 58.6537 29.7679 58.7814 29.0432C58.8381 28.7099 58.8952 28.3766 58.9522 28.0432C59.2673 26.201 59.5825 24.358 59.8609 22.5098C59.8988 22.2199 59.9417 21.93 59.9846 21.6399C60.0886 20.9369 60.1928 20.2331 60.2253 19.5263C60.1415 18.821 59.2863 18.9761 58.8103 19.1347C56.3641 20.0655 53.9423 21.0654 51.5301 22.0828C51.2568 22.2039 50.9798 22.3248 50.7009 22.4466Z" fill="#282828"/>
</svg>
