<svg width="64" height="47" viewBox="0 0 64 47" fill="none" xmlns="http://www.w3.org/2000/svg">
<rect x="12.9546" width="31.5166" height="8.15702" rx="4.07851" fill="#00FFD8"/>
<rect y="12.624" width="31.9033" height="7.18595" rx="3.59298" fill="#00FFD8"/>
<rect x="12.5679" y="27.9668" width="40.7976" height="8.15702" rx="4.07851" fill="#00FFD8"/>
<rect x="14.8882" y="43.8926" width="27.6496" height="3.10744" rx="1.55372" fill="#00FFD8"/>
<path fill-rule="evenodd" clip-rule="evenodd" d="M40.6041 47C53.5253 47 63.9999 36.4787 63.9999 23.5C63.9999 10.5213 53.5253 0 40.6041 0C33.5208 0 27.1728 3.16183 22.8825 8.15702H39.1441C40.3776 8.15702 41.3775 9.15698 41.3775 10.3905C41.3775 11.624 40.3776 12.624 39.1441 12.624H19.8594C18.7077 14.8356 17.8964 17.2543 17.4951 19.8099H22.4108C24.6633 19.8099 26.4893 21.6359 26.4893 23.8884C26.4893 26.1409 24.6633 27.9669 22.4108 27.9669H17.6305C18.1962 30.92 19.3123 33.6763 20.8672 36.124H29.5658C31.711 36.124 33.45 37.863 33.45 40.0083C33.45 42.1535 31.711 43.8926 29.5658 43.8926H28.9692C32.3961 45.8695 36.3687 47 40.6041 47Z" fill="#00FFD8"/>
<path d="M55.693 18H39.601C38.1669 18 37 19.2765 37 20.8453V30.9686C37 32.5375 38.1669 33.814 39.601 33.814H55.693C57.1271 33.814 58.294 32.5375 58.294 30.9686V20.8456C58.2943 19.2765 57.1274 18 55.693 18ZM54.422 19.8562L47.647 24.6311L40.872 19.8562H54.422ZM55.693 31.958H39.601C39.1024 31.958 38.6969 31.5141 38.6969 30.969V20.8982L47.1235 26.8258C47.1348 26.8336 47.147 26.8388 47.1586 26.8459C47.1707 26.8534 47.1832 26.8605 47.1956 26.8673C47.261 26.9041 47.3283 26.9338 47.397 26.9533C47.4041 26.9554 47.4111 26.9564 47.4182 26.9582C47.4937 26.9777 47.5701 26.9898 47.6464 26.9898C47.6467 26.9898 47.647 26.9898 47.647 26.9898C47.6476 26.9898 47.6478 26.9898 47.6481 26.9898C47.7245 26.9898 47.8008 26.978 47.8764 26.9582C47.8834 26.9564 47.8905 26.9554 47.8976 26.9533C47.9663 26.9338 48.0333 26.9041 48.0989 26.8673C48.1114 26.8605 48.1238 26.8534 48.136 26.8459C48.1476 26.8388 48.1597 26.8336 48.171 26.8258L56.5977 20.8982V30.9686C56.5974 31.5141 56.1916 31.958 55.693 31.958Z" fill="#282828"/>
</svg>
