<svg width="59" height="47" viewBox="0 0 59 47" fill="none" xmlns="http://www.w3.org/2000/svg">
<rect width="39.7774" height="4.66116" rx="2.33058" fill="#00FFD8"/>
<rect x="11.9902" y="8.15723" width="28.929" height="4.66116" rx="2.33058" fill="#00FFD8"/>
<rect x="7.23242" y="19.2271" width="12.5613" height="4.27273" rx="2.13636" fill="#00FFD8"/>
<rect x="8.37402" y="33.7935" width="40.1581" height="2.33058" rx="1.16529" fill="#00FFD8"/>
<rect x="3.61621" y="27.9668" width="25.5032" height="2.33058" rx="1.16529" fill="#00FFD8"/>
<rect x="12.9419" y="38.8428" width="25.5032" height="2.33058" rx="1.16529" fill="#00FFD8"/>
<rect x="3.61621" y="33.7935" width="3.99677" height="2.33058" rx="1.16529" fill="white"/>
<rect x="1.71289" y="43.8926" width="35.971" height="3.10744" rx="1.55372" fill="#00FFD8"/>
<path fill-rule="evenodd" clip-rule="evenodd" d="M59 23.5C59 36.4787 48.6895 47 35.9709 47C31.8019 47 27.8916 45.8695 24.5184 43.8926H24.5243C25.2752 43.8926 25.8838 43.2839 25.8838 42.5331C25.8838 41.7822 25.2752 41.1736 24.5243 41.1736H20.7923C19.9854 40.4513 19.2283 39.6724 18.5271 38.843H23.0017C23.7526 38.843 24.3612 38.2343 24.3612 37.4835C24.3612 36.7326 23.7526 36.124 23.0017 36.124H16.5434C16.075 35.3749 15.6471 34.597 15.2628 33.7934H15.952C16.9174 33.7934 17.7 33.0108 17.7 32.0455C17.7 31.0801 16.9174 30.2975 15.952 30.2975H13.92C13.6949 29.5362 13.5067 28.7587 13.3574 27.9669H19.8439C21.0774 27.9669 22.0774 26.967 22.0774 25.7335C22.0774 24.5 21.0774 23.5 19.8439 23.5H12.9419C12.9419 22.0409 13.0722 20.6128 13.3216 19.2273H22.5822C24.4056 19.2273 25.8838 17.7491 25.8838 15.9256C25.8838 14.1022 24.4056 12.624 22.5822 12.624H15.5514C16.3752 11.0167 17.3758 9.51873 18.5271 8.15702H23.9456C24.9109 8.15702 25.6935 7.37445 25.6935 6.40909C25.6935 5.44373 24.9109 4.66116 23.9456 4.66116H22.2021C26.0426 1.73348 30.8084 0 35.9709 0C48.6895 0 59 10.5213 59 23.5Z" fill="#00FFD8"/>
<path d="M41.0769 11C35.5205 11 31 15.5205 31 21.0768C31 23.3737 32.6153 26.777 35.801 31.1921C38.1266 34.4152 40.4861 37.0411 40.5096 37.0673L41.0768 37.6968L41.644 37.0673C41.6676 37.0411 44.027 34.4153 46.3526 31.1921C49.5383 26.7769 51.1536 23.3737 51.1536 21.0768C51.1537 15.5205 46.6332 11 41.0769 11ZM41.0768 35.4029C38.2474 32.1433 32.5271 24.7865 32.5271 21.0768C32.527 16.3625 36.3625 12.527 41.0769 12.527C45.7913 12.527 49.6267 16.3625 49.6267 21.0768C49.6267 24.7843 43.9062 32.1426 41.0768 35.4029Z" fill="#282828"/>
<path d="M41.077 24.8713C43.1726 24.8713 44.8713 23.1726 44.8713 21.077C44.8713 18.9815 43.1726 17.2827 41.077 17.2827C38.9815 17.2827 37.2827 18.9815 37.2827 21.077C37.2827 23.1726 38.9815 24.8713 41.077 24.8713Z" fill="#282828"/>
</svg>
