<svg width="331" height="242" viewBox="0 0 331 242" fill="none" xmlns="http://www.w3.org/2000/svg">
<rect x="67" width="163" height="42" rx="21" fill="#00FFD8"/>
<rect y="65" width="165" height="37" rx="18.5" fill="#00FFD8"/>
<rect x="65" y="144" width="211" height="42" rx="21" fill="#00FFD8"/>
<rect x="77" y="226" width="143" height="16" rx="8" fill="#00FFD8"/>
<path fill-rule="evenodd" clip-rule="evenodd" d="M210 242C276.826 242 331 187.826 331 121C331 54.1735 276.826 0 210 0C173.366 0 140.535 16.2801 118.346 42H202.5C208.851 42 214 47.1487 214 53.5C214 59.8513 208.851 65 202.5 65H102.711C96.7546 76.3878 92.5584 88.8415 90.4831 102H116C127.598 102 137 111.402 137 123C137 134.598 127.598 144 116 144H91.1831C94.109 159.205 99.8811 173.397 107.923 186H153C164.046 186 173 194.954 173 206C173 217.046 164.046 226 153 226H149.826C167.549 236.179 188.095 242 210 242Z" fill="#00FFD8"/>
<path d="M230 79C242.465 79 254.42 84.1625 263.234 93.3518C272.048 102.541 277 115.004 277 128C277 140.996 272.048 153.459 263.234 162.648C254.42 171.838 242.465 177 230 177C217.535 177 205.58 171.838 196.766 162.648C187.952 153.459 183 140.996 183 128C183 115.004 187.952 102.541 196.766 93.3518C205.58 84.1625 217.535 79 230 79V79ZM230 87.0033C208.404 87.0033 190.833 105.321 190.833 128C190.823 136.62 193.419 145.023 198.253 152.016C203.086 159.01 209.911 164.237 217.756 166.955C217.873 166.973 217.991 166.987 218.109 166.996C219.699 167.078 220.295 165.942 220.295 164.954L220.24 157.98C209.351 160.454 207.048 152.476 207.048 152.476C205.27 147.739 202.701 146.481 202.701 146.481C199.145 143.933 202.967 143.982 202.967 143.982C205.826 144.195 207.699 146.334 208.513 147.494L208.968 148.213C212.461 154.476 218.133 152.672 220.365 151.626C220.725 148.972 221.728 147.167 222.848 146.138C214.153 145.101 205.012 141.581 205.012 125.869C205.012 121.393 206.539 117.734 209.046 114.86L208.811 114.166C208.31 112.508 207.62 108.792 209.43 104.006L209.743 103.949C210.714 103.819 214.036 103.843 220.201 108.212C223.394 107.302 226.689 106.837 230 106.832C233.329 106.848 236.682 107.306 239.807 108.22C247.288 102.912 250.57 104.006 250.57 104.006C252.701 109.658 251.354 113.823 250.962 114.868C253.469 117.726 254.981 121.393 254.981 125.869C254.981 141.63 245.823 145.093 237.097 146.106C238.507 147.371 239.76 149.879 239.76 153.701L239.713 164.954C239.713 166.016 240.379 167.257 242.244 166.955C250.089 164.237 256.914 159.01 261.747 152.016C266.581 145.023 269.177 136.62 269.167 128C269.167 105.321 251.597 87.0033 230 87.0033Z" fill="#282828"/>
</svg>
