<svg width="17" height="17" viewBox="0 0 17 17" fill="none" xmlns="http://www.w3.org/2000/svg">
<path d="M5.68609 13.6884C5.68609 13.7587 5.60726 13.8149 5.50786 13.8149C5.39476 13.8255 5.31593 13.7692 5.31593 13.6884C5.31593 13.6181 5.39476 13.5618 5.49415 13.5618C5.59698 13.5513 5.68609 13.6075 5.68609 13.6884ZM4.62016 13.5302C4.59617 13.6005 4.66472 13.6813 4.76754 13.7024C4.85665 13.7376 4.95948 13.7024 4.98004 13.6321C5.00061 13.5618 4.93548 13.481 4.83266 13.4493C4.74355 13.4247 4.64415 13.4599 4.62016 13.5302ZM6.13508 13.4704C6.03569 13.495 5.96714 13.5618 5.97742 13.6427C5.9877 13.713 6.07681 13.7587 6.17964 13.7341C6.27903 13.7095 6.34758 13.6427 6.3373 13.5724C6.32702 13.5056 6.23448 13.4599 6.13508 13.4704ZM8.39032 0C3.63649 0 0 3.70156 0 8.5772C0 12.4756 2.39234 15.8116 5.80948 16.9857C6.24819 17.0665 6.40242 16.7888 6.40242 16.5603C6.40242 16.3424 6.39214 15.1402 6.39214 14.402C6.39214 14.402 3.99294 14.9293 3.48911 13.3544C3.48911 13.3544 3.09839 12.3315 2.53629 12.0678C2.53629 12.0678 1.75141 11.516 2.59113 11.5265C2.59113 11.5265 3.44456 11.5968 3.91411 12.4334C4.66472 13.7903 5.92258 13.4001 6.4127 13.1681C6.49153 12.6057 6.71431 12.2155 6.96109 11.9835C5.04516 11.7655 3.1121 11.4808 3.1121 8.09913C3.1121 7.13244 3.37258 6.64733 3.92097 6.02865C3.83186 5.80016 3.54052 4.85807 4.01008 3.6418C4.72641 3.41331 6.375 4.59091 6.375 4.59091C7.06048 4.39406 7.79738 4.29212 8.52742 4.29212C9.25746 4.29212 9.99436 4.39406 10.6798 4.59091C10.6798 4.59091 12.3284 3.40979 13.0448 3.6418C13.5143 4.86159 13.223 5.80016 13.1339 6.02865C13.6823 6.65085 14.0181 7.13595 14.0181 8.09913C14.0181 11.4913 11.9994 11.762 10.0835 11.9835C10.3988 12.2612 10.6661 12.7885 10.6661 13.6146C10.6661 14.7992 10.6558 16.2651 10.6558 16.5533C10.6558 16.7818 10.8135 17.0595 11.2488 16.9786C14.6762 15.8116 17 12.4756 17 8.5772C17 3.70156 13.1442 0 8.39032 0ZM3.33145 12.1241C3.2869 12.1592 3.29718 12.2401 3.35544 12.3069C3.41028 12.3631 3.48911 12.3877 3.53367 12.342C3.57823 12.3069 3.56794 12.226 3.50968 12.1592C3.45484 12.103 3.37601 12.0784 3.33145 12.1241ZM2.96129 11.8394C2.9373 11.8851 2.97157 11.9413 3.04012 11.9764C3.09496 12.0116 3.16351 12.0011 3.1875 11.9518C3.21149 11.9061 3.17722 11.8499 3.10867 11.8147C3.04012 11.7937 2.98528 11.8042 2.96129 11.8394ZM4.07177 13.0908C4.01694 13.1365 4.0375 13.2419 4.11633 13.3087C4.19516 13.3896 4.29456 13.4001 4.33911 13.3439C4.38367 13.2982 4.3631 13.1927 4.29456 13.1259C4.21915 13.0451 4.11633 13.0345 4.07177 13.0908ZM3.68105 12.574C3.62621 12.6092 3.62621 12.7006 3.68105 12.7814C3.73589 12.8623 3.82843 12.8974 3.87298 12.8623C3.92782 12.8166 3.92782 12.7252 3.87298 12.6443C3.825 12.5635 3.73589 12.5283 3.68105 12.574Z" fill="white"/>
</svg>
