<svg width="196" height="104" viewBox="0 0 196 104" fill="none" xmlns="http://www.w3.org/2000/svg">
<path d="M103.448 103V0.0499945H143.033C154.44 0.0499945 163.961 2.36999 171.598 7.00999C179.331 11.5533 185.131 17.74 188.998 25.57C192.961 33.3033 194.943 41.9067 194.943 51.38C194.943 61.82 192.768 70.9067 188.418 78.64C184.165 86.3733 178.123 92.3667 170.293 96.62C162.56 100.873 153.473 103 143.033 103H103.448ZM166.233 51.38C166.233 43.3567 164.155 36.9283 159.998 32.095C155.938 27.165 150.283 24.7 143.033 24.7H131.723V78.35H143.033C150.476 78.35 156.18 75.7883 160.143 70.665C164.203 65.5417 166.233 59.1133 166.233 51.38Z" fill="white"/>
<rect x="44" width="79" height="9" rx="4.5" fill="white"/>
<rect x="61" y="22" width="62" height="9" rx="4.5" fill="white"/>
<rect x="88" y="53" width="35" height="9" rx="4.5" fill="white"/>
<rect x="86" y="94" width="35" height="9" rx="4.5" fill="white"/>
<rect x="16" y="53" width="66" height="9" rx="4.5" fill="#00FFD8"/>
<rect x="65" y="94" width="17" height="9" rx="4.5" fill="#00FFD8"/>
<rect x="56" y="70" width="68" height="16" rx="8" fill="white"/>
<rect x="38" y="22" width="19" height="9" rx="4.5" fill="#00FFD8"/>
<rect y="9" width="114" height="13" rx="6.5" fill="#171717"/>
<rect x="29" y="31" width="90" height="22" rx="11" fill="#171717"/>
<rect x="29" y="62" width="90" height="8" rx="4" fill="#171717"/>
<rect x="24" y="86" width="90" height="8" rx="4" fill="#171717"/>
</svg>
