<svg width="17" height="17" viewBox="0 0 17 17" fill="none" xmlns="http://www.w3.org/2000/svg">
<path d="M8.5 0C3.80241 0 0 3.80166 0 8.5C0 13.1976 3.80166 17 8.5 17C10.1504 17 11.7678 16.5154 13.141 15.6214C13.5525 15.3535 13.6423 14.7889 13.3313 14.409L12.9825 13.9829C12.7196 13.6617 12.2566 13.583 11.9072 13.8071C10.8965 14.4554 9.71036 14.8065 8.5 14.8065C5.02261 14.8065 2.19355 11.9774 2.19355 8.5C2.19355 5.02261 5.02261 2.19355 8.5 2.19355C11.9322 2.19355 14.8065 4.16839 14.8065 7.67742C14.8065 9.00678 14.0835 10.4105 12.8127 10.5459C12.2181 10.5304 12.2331 10.1053 12.3508 9.51688L13.154 5.36593C13.2522 4.85837 12.8634 4.3871 12.3464 4.3871H10.8047C10.6909 4.38709 10.5811 4.429 10.4961 4.50481C10.4112 4.58062 10.3572 4.68504 10.3444 4.79815L10.344 4.8013C9.84029 4.18776 8.9577 4.05498 8.28856 4.05498C5.73239 4.05498 3.56452 6.188 3.56452 9.24615C3.56452 11.4844 4.82529 12.8748 6.85484 12.8748C7.77969 12.8748 8.82112 12.3388 9.42509 11.5609C9.75145 12.7298 10.8171 12.7298 11.8486 12.7298C15.5814 12.7298 17 10.2753 17 7.67742C17 3.00424 13.2306 0 8.5 0ZM7.75694 10.4341C6.99437 10.4341 6.52067 9.89863 6.52067 9.0367C6.52067 7.4946 7.57559 6.54397 8.53016 6.54397C9.2942 6.54397 9.75036 7.06634 9.75036 7.94133C9.75036 9.48576 8.58932 10.4341 7.75694 10.4341Z" fill="white"/>
</svg>
