<svg width="417" height="242" viewBox="0 0 417 242" fill="none" xmlns="http://www.w3.org/2000/svg">
<rect x="105" width="211" height="42" rx="21" fill="#00FFD8"/>
<rect x="26" y="79" width="185" height="42" rx="21" fill="#00FFD8"/>
<rect x="151" y="144" width="211" height="42" rx="21" fill="#00FFD8"/>
<rect x="107" y="200" width="211" height="42" rx="21" fill="#00FFD8"/>
<path fill-rule="evenodd" clip-rule="evenodd" d="M296 242C362.826 242 417 187.826 417 121C417 54.1735 362.826 0 296 0C259.366 0 226.535 16.2801 204.346 42H224.5C234.717 42 243 50.2827 243 60.5C243 70.7173 234.717 79 224.5 79H182.488C177.645 92.0835 175 106.233 175 121H211.5C217.851 121 223 126.149 223 132.5C223 138.851 217.851 144 211.5 144H177.183C180.109 159.205 185.881 173.397 193.923 186H228C231.866 186 235 189.134 235 193C235 196.866 231.866 200 228 200H204.346C226.535 225.72 259.366 242 296 242Z" fill="#00FFD8"/>
<path fill-rule="evenodd" clip-rule="evenodd" d="M365 121C365 148.062 343.062 170 316 170C288.938 170 267 148.062 267 121C267 93.9381 288.938 72 316 72C343.062 72 365 93.9381 365 121ZM299.813 116.511C294.904 118.655 289.861 120.857 285.249 123.397C282.841 125.16 286.041 126.407 289.044 127.577C289.521 127.763 289.994 127.947 290.438 128.131C290.807 128.245 291.183 128.364 291.564 128.486C294.903 129.549 298.627 130.736 301.869 128.951C307.195 125.892 312.221 122.355 317.243 118.821C318.889 117.662 320.534 116.505 322.188 115.364C322.266 115.315 322.353 115.258 322.449 115.196C323.859 114.282 327.03 112.227 325.857 115.059C323.084 118.092 320.113 120.777 317.126 123.477C315.113 125.296 313.092 127.122 311.12 129.066C309.403 130.461 307.619 133.268 309.542 135.222C313.972 138.324 318.472 141.35 322.969 144.374C324.432 145.359 325.895 146.343 327.355 147.329C329.83 149.305 333.698 147.707 334.242 144.619C334.484 143.199 334.727 141.778 334.97 140.358C336.313 132.508 337.656 124.656 338.842 116.781C339.003 115.545 339.186 114.31 339.369 113.074C339.812 110.079 340.256 107.08 340.395 104.069C340.038 101.063 336.394 101.724 334.366 102.4C323.943 106.366 313.624 110.626 303.346 114.962C302.181 115.477 301.001 115.993 299.813 116.511Z" fill="#282828"/>
</svg>
