<svg width="27" height="19" viewBox="0 0 27 19" fill="none" xmlns="http://www.w3.org/2000/svg">
<path d="M20.8822 10.791C19.6427 10.791 18.4784 10.2717 17.4237 9.4217L17.6785 8.22242L17.687 8.17468C17.9198 6.90087 18.6404 4.75942 20.8813 4.75942C22.5603 4.75942 23.9221 6.11196 23.9221 7.77771C23.9221 9.43928 22.5595 10.7918 20.8813 10.7918L20.8822 10.791ZM20.8822 1.70512C18.0262 1.70512 15.8063 3.54591 14.9061 6.5776C13.535 4.53163 12.4888 2.07194 11.883 0H8.80679V7.9427C8.80257 9.51298 7.52348 10.7826 5.9415 10.7868C4.35952 10.7826 3.08043 9.50879 3.07622 7.9427V0H0V7.9427C0 11.1963 2.66701 13.862 5.9415 13.862C9.21937 13.862 11.883 11.1972 11.883 7.9427V6.61194C12.4804 7.84639 13.2144 9.10261 14.1062 10.2106L12.2213 19H15.3676L16.7344 12.6226C17.93 13.3813 19.3052 13.8612 20.883 13.8612C24.2579 13.8612 27 11.1218 27 7.77604C27 4.4261 24.2579 1.70428 20.883 1.70428L20.8822 1.70512Z" fill="white"/>
</svg>
