<svg width="310" height="242" viewBox="0 0 310 242" fill="none" xmlns="http://www.w3.org/2000/svg">
<rect width="209" height="24" rx="12" fill="#00FFD8"/>
<rect x="63" y="42" width="152" height="24" rx="12" fill="#00FFD8"/>
<rect x="38" y="99" width="66" height="22" rx="11" fill="#00FFD8"/>
<rect x="44" y="174" width="211" height="12" rx="6" fill="#00FFD8"/>
<rect x="19" y="144" width="134" height="12" rx="6" fill="#00FFD8"/>
<rect x="68" y="200" width="134" height="12" rx="6" fill="#00FFD8"/>
<rect x="19" y="174" width="21" height="12" rx="6" fill="white"/>
<rect x="9" y="226" width="189" height="16" rx="8" fill="#00FFD8"/>
<path fill-rule="evenodd" clip-rule="evenodd" d="M310 121C310 187.826 255.826 242 189 242C167.095 242 146.549 236.179 128.826 226H129C132.866 226 136 222.866 136 219C136 215.134 132.866 212 129 212H109.248C105.008 208.281 101.03 204.271 97.3458 200H121C124.866 200 128 196.866 128 193C128 189.134 124.866 186 121 186H86.9232C84.4622 182.143 82.2138 178.138 80.1945 174H84C88.9706 174 93 169.971 93 165C93 160.029 88.9706 156 84 156H73.1392C71.9567 152.08 70.9676 148.077 70.1832 144H104.5C110.851 144 116 138.851 116 132.5C116 126.149 110.851 121 104.5 121H68C68 113.487 68.6847 106.134 69.9951 99H119C128.389 99 136 91.3888 136 82C136 72.6112 128.389 65 119 65H81.7107C86.0391 56.7242 91.297 49.0114 97.3458 42H126C130.971 42 135 37.9706 135 33C135 28.0294 130.971 24 126 24H116.655C136.834 8.92559 161.875 0 189 0C255.826 0 310 54.1735 310 121Z" fill="#00FFD8"/>
<path d="M249.075 134.3C244.026 134.3 239.282 132.168 234.986 128.679L236.024 123.755L236.058 123.559C237.007 118.33 239.942 109.539 249.072 109.539C255.912 109.539 261.46 115.091 261.46 121.93C261.46 128.751 255.909 134.303 249.072 134.303L249.075 134.3ZM249.075 97C237.44 97 228.396 104.557 224.728 117.003C219.143 108.604 214.88 98.5058 212.412 90H199.88V122.607C199.862 129.053 194.651 134.265 188.206 134.283C181.761 134.265 176.55 129.036 176.533 122.607V90H164V122.607C164 135.964 174.866 146.907 188.206 146.907C201.56 146.907 212.412 135.967 212.412 122.607V117.144C214.846 122.211 217.836 127.369 221.47 131.917L213.791 168H226.609L232.177 141.819C237.048 144.934 242.651 146.904 249.079 146.904C262.828 146.904 274 135.658 274 121.923C274 108.17 262.828 96.9965 249.079 96.9965L249.075 97Z" fill="#282828"/>
</svg>
